# xmcd
# 
# Track frame offsets:
#   150
#   16950
#   34125
#   59625
#   79800
#   90900
#   113325
#   136275
#   156075
#   172575
#   193425
# 
# Disc length: 2943 seconds
# 
# Revision: 1
# Processed by: cddbd v1.5.1PL2 Copyright (c) Steve Scherf et al.
# Submitted via: Synapstar 1.0 
# 
DISCID=810b7d0b
DTITLE=Dixie Chicks - Home - Karaoke
DYEAR=1900
DGENRE=Country
TTITLE0=Long Time Gone
TTITLE1=Landslide
TTITLE2=Travelin' Soldier
TTITLE3=Truth No. 2
TTITLE4=White Trash Wedding
TTITLE5=A Home
TTITLE6=More Love
TTITLE7=I Believe In Love
TTITLE8=Tortured, Tangled Hearts
TTITLE9=Godspeed (Sweet Dreams)
TTITLE10=Top Of The World
EXTD=Masterpiece Series\nBackup vocals only MediaType: Karaoke CD+G Producer: Amerising
EXTT0=
EXTT1=
EXTT2=
EXTT3=
EXTT4=
EXTT5=
EXTT6=
EXTT7=
EXTT8=
EXTT9=
EXTT10=
PLAYORDER=
